PathFileType	4	(X/Y/Z)	T1_P1_NoVision_NoMovement_3_0-639.trc
DataRate	CameraRate	NumFrames	NumMarkers	Units	OrigDataRate	OrigDataStartFrame	OrigNumFrames
60	60	4	27	m	60	79	639
Frame#	Time	RHip			RKnee			RAnkle			RBigToe			RSmallToe			RHeel			LHip			LKnee			LAnkle			LBigToe			LSmallToe			LHeel			Neck			Head			Nose			RShoulder			RElbow			RWrist			RThumb			RIndex			RPinky			LShoulder			LElbow			LWrist			LThumb			LIndex			LPinky		
		X1	Y1	Z1	X2	Y2	Z2	X3	Y3	Z3	X4	Y4	Z4	X5	Y5	Z5	X6	Y6	Z6	X7	Y7	Z7	X8	Y8	Z8	X9	Y9	Z9	X10	Y10	Z10	X11	Y11	Z11	X12	Y12	Z12	X13	Y13	Z13	X14	Y14	Z14	X15	Y15	Z15	X16	Y16	Z16	X17	Y17	Z17	X18	Y18	Z18	X19	Y19	Z19	X20	Y20	Z20	X21	Y21	Z21	X22	Y22	Z22	X23	Y23	Z23	X24	Y24	Z24	X25	Y25	Z25	X26	Y26	Z26	X27	Y27	Z27
80	1.3333333333333333	-65.77357384329062	3795.550257890355	-556.7331458658214	291.4965596674592	3875.4372944169877	-544.1601412440687	652.6630491545162	4173.969950958936	-587.8595717553459	704.2428821504209	3961.0840546159743	-498.31372414214337	721.463982004546	4033.248521461452	-597.7617408736398	687.7952741907985	4194.331480436655	-558.8454295856475	-108.19167214674458	3900.9118075385436	-356.16969749217145	241.34720541028136	4009.2941304089863	-360.4822121189528	584.5602791294689	4192.4339862336155	-381.55292868264223	682.6632874112947	4141.353922503308	-332.41529721868625	640.3022244658101	4146.91062012673	-295.5625745940656	624.6757714337801	4247.670319945687	-417.3322059688355	-652.3101764651838	3659.947640020758	-465.4563594997627	-902.6628196205885	3543.71092681112	-432.0745185140068	-741.2676493636745	3565.7460473243327	-404.61510841686675	-557.4508031953816	3634.8117240797164	-623.6159456502743	-301.9338086689469	3718.3633480306794	-698.1518550126299	-42.49612538950022	3642.851047746204	-609.9953195408874	71.52595715843876	3771.3086286248117	-570.2601218619596	90.22340644290998	3744.392273176951	-570.4061249626998	84.59132150179786	3671.7171759740913	-585.4036560321811	-604.4209425826962	3747.3897856988447	-335.371083410257	-388.2928312438923	3979.62119744652	-333.86405933837716	-122.96781098725356	3992.5034596223322	-302.67791079966	11.734771969118514	3932.332910467082	-322.2652179756749	28.00923403270678	3922.471266572141	-274.59629408237083	2.755646848468134	4001.7484911360357	-248.89063437725304
81	1.35	-65.69332276621607	3790.92748089657	-555.5419480835195	290.1309512931484	3869.764584226872	-540.028459087169	653.7491961259766	4178.482354340433	-589.842122143047	702.5035753839601	3953.1449476000403	-495.0289719768255	721.0927843174595	4033.860992901605	-598.3435176409039	688.993540990465	4199.075460087866	-562.1114847114994	-108.18051496987576	3900.740779719408	-356.1236764948276	241.89514931825906	4009.08655728111	-360.39882893604187	584.4625592724065	4195.619183377701	-383.69454161021383	683.2817536414938	4142.753547961566	-333.1965856001593	641.4725653277472	4148.122736395282	-296.29936722021125	625.7282022514086	4251.771288049989	-420.08908760983104	-653.3177413965997	3659.404243877045	-465.20750284706435	-902.6414517863489	3543.783289757639	-432.10729778104877	-742.9020828587733	3565.2855962505773	-404.58236353239687	-557.4566072144247	3634.7873713601302	-623.5814136737058	-301.9060013661959	3718.282844145397	-698.7809017828157	-42.30955783272162	3640.8459882247607	-610.9691589980496	70.85135042997781	3766.7121975920627	-568.9841822558926	88.86538225258069	3743.268822199404	-570.1111250422035	84.60885841633716	3674.1481818180027	-585.9705341224249	-604.4003525052574	3747.333257399155	-335.3143638372229	-388.7768472270851	3978.661121297678	-332.10056541831943	-123.97514336122943	3986.2202143777986	-301.3558755568102	11.721021726724533	3932.403856469339	-322.2861739367528	27.920091312924516	3922.255708108103	-274.06676376317904	1.9516829642567708	4000.4458348142207	-248.5155816479497
82	1.3666666666666667	-65.79633988502783	3783.846879399554	-551.5278191676656	289.0521987985965	3867.044486494099	-538.0372156530345	653.7139910113851	4179.933088715855	-589.786843742916	702.5512275178019	3950.001944256966	-492.91925118985773	720.7896623549664	4035.232073271175	-599.0792657581858	689.6424093631944	4201.098443539633	-563.4223406044226	-108.16126374051197	3900.582177308906	-356.07975832267186	241.49665329782047	4009.080527120987	-360.42443147955544	585.14642793106	4198.300496310918	-385.4065038576586	682.2482436563434	4140.419238344189	-332.0313492509987	641.9445818800912	4146.110823654076	-295.0309502158632	626.5767921516291	4255.569359646314	-422.7147713811514	-654.3758636943303	3658.7138848663008	-464.8561747850243	-902.6052597664361	3543.805210505064	-432.10492512945507	-744.4307460089691	3564.8484571054887	-404.5562857017838	-557.4472438333152	3634.7916068834884	-623.5790378782095	-301.91552695743655	3718.257900984684	-698.9077711931479	-42.01551812365706	3643.1101501572143	-614.5151625705445	70.62058208605885	3764.2527868695583	-568.3604494324237	87.22072825826899	3742.3446303500696	-570.2371168526251	84.57030853454656	3674.675611144837	-586.0510773799102	-604.3774872140576	3747.2848165255346	-335.2708566810422	-388.39978920021235	3978.62032422239	-331.45318772791506	-125.38683891058574	3984.0834540490628	-300.9687365767852	11.684304729223694	3932.4511993993638	-322.2813781268755	27.930052776377703	3922.5184122294427	-274.59927666926177	1.3317851587069771	3997.8011416755567	-247.94041697009118
83	1.3833333333333333	-65.93856681370507	3777.871719521237	-547.6341064271733	288.91066242883494	3866.6017867847313	-537.6468242727387	651.94562447555	4177.432263466163	-587.8622031232694	703.1015943633432	3953.203189784873	-493.40206349516427	720.3040189679432	4036.1847180013474	-599.4819308962947	689.0413368625399	4199.14388021735	-562.0738201780005	-108.14163844171517	3900.5329711972986	-356.07486991686164	240.17696452253392	4009.1735127411057	-360.54357631210473	586.7851632894626	4199.5367341160345	-386.0073147982004	680.9304666907036	4138.679138053819	-331.4321513822048	642.0688679517416	4145.074213928135	-294.4359350778938	626.9610675671189	4257.288228724101	-423.9115922919362	-654.9933778360326	3658.569638239534	-464.85850180145843	-902.9840702137066	3543.556036954876	-432.0096536903814	-745.5012394202777	3564.5450613002668	-404.5643487855216	-557.4341824634644	3634.820522214105	-623.6042369030358	-301.9334695309004	3718.217507340256	-698.8986847888825	-41.69362864837178	3648.2801246456133	-619.4586807051643	70.64465522389446	3763.5378773501784	-568.2645426633478	86.76962649831314	3743.487257332064	-571.7905876506271	84.53495906714237	3674.5619612558353	-586.0462261528661	-604.3678623125691	3747.2713437907787	-335.26554188131337	-387.6166665577031	3979.1417231377104	-331.59678400835645	-126.11928715941463	3988.804763554076	-301.8383359409371	12.027839871392727	3932.4067630194995	-322.19615386799865	27.98369509153373	3922.9745161109795	-275.7116481444312	1.0586358492542578	3996.322072255804	-247.63141595063624
